<svg width="147" height="91" viewBox="0 0 147 91" fill="none" xmlns="http://www.w3.org/2000/svg">
<g clip-path="url(#clip0_82820_368)">
<path fill-rule="evenodd" clip-rule="evenodd" d="M18.6849 0.218952C12.8838 2.83026 7.12218 5.36244 1.40003 8.1419C0.166813 8.73538 -0.34613 10.209 0.245816 11.4355C0.837763 12.6719 2.31747 13.1865 3.54083 12.593C9.23338 9.83331 14.9456 7.32097 20.7072 4.72945C21.9503 4.16564 22.503 2.70168 21.9506 1.46527C21.3882 0.218962 19.928 -0.344852 18.6849 0.218952Z" fill="#118DA8"/>
<path fill-rule="evenodd" clip-rule="evenodd" d="M61.3058 31.1097C52.8804 49.3987 45.3822 68.1031 37.3515 86.5603C36.8089 87.8165 37.3811 89.2706 38.6242 89.8147C39.8771 90.3587 41.3272 89.7948 41.8797 88.5386C49.8907 70.1111 57.3689 51.4364 65.7844 33.1869C66.3566 31.9406 65.8143 30.4766 64.5811 29.9029C63.338 29.3292 61.878 29.8733 61.3058 31.1097Z" fill="#118DA8"/>
<path fill-rule="evenodd" clip-rule="evenodd" d="M133.591 35.8577C136.284 52.6729 139.451 69.4386 141.957 86.2835C142.164 87.6287 143.417 88.5584 144.759 88.3605C146.11 88.1627 147.038 86.8968 146.84 85.5516C144.325 68.6869 141.158 51.9013 138.454 35.0663C138.237 33.7211 136.975 32.8011 135.633 33.0187C134.281 33.2363 133.374 34.5026 133.591 35.8577Z" fill="#118DA8"/>
</g>
<defs>
<clipPath id="clip0_82820_368">
<rect width="147" height="91" fill="white"/>
</clipPath>
</defs>
</svg>
