<svg width="48" height="48" viewBox="0 0 48 48" fill="none" xmlns="http://www.w3.org/2000/svg">
<path d="M25.88 24L36.9333 12.9467C37.1518 12.6916 37.2659 12.3635 37.253 12.0279C37.24 11.6924 37.1009 11.374 36.8634 11.1366C36.626 10.8991 36.3076 10.76 35.9721 10.747C35.6365 10.7341 35.3084 10.8482 35.0533 11.0667L24 22.12L12.9467 11.0533C12.6956 10.8023 12.3551 10.6612 12 10.6612C11.6449 10.6612 11.3044 10.8023 11.0533 11.0533C10.8023 11.3044 10.6612 11.6449 10.6612 12C10.6612 12.3551 10.8023 12.6956 11.0533 12.9467L22.12 24L11.0533 35.0533C10.9138 35.1729 10.8004 35.32 10.7204 35.4854C10.6403 35.6508 10.5954 35.831 10.5883 36.0146C10.5812 36.1982 10.6121 36.3813 10.6792 36.5524C10.7462 36.7235 10.8479 36.8789 10.9778 37.0089C11.1077 37.1388 11.2631 37.2405 11.4342 37.3075C11.6053 37.3745 11.7885 37.4055 11.9721 37.3984C12.1557 37.3913 12.3359 37.3463 12.5013 37.2663C12.6667 37.1863 12.8138 37.0729 12.9333 36.9333L24 25.88L35.0533 36.9333C35.3084 37.1518 35.6365 37.2659 35.9721 37.2529C36.3076 37.24 36.626 37.1009 36.8634 36.8634C37.1009 36.626 37.24 36.3076 37.253 35.9721C37.2659 35.6365 37.1518 35.3084 36.9333 35.0533L25.88 24Z" fill="white"/>
</svg>
