<svg width="224" height="46" viewBox="0 0 224 46" fill="none" xmlns="http://www.w3.org/2000/svg">
<g clip-path="url(#clip0_82801_287)">
<path d="M17.4647 35.4338C14.0021 35.4338 11.0293 34.7019 8.54669 33.2383C6.06403 31.7422 4.15303 29.6768 2.81369 27.0422C1.47435 24.3752 0.804688 21.3016 0.804688 17.8213C0.804688 14.3411 1.47435 11.2675 2.81369 8.60042C4.15303 5.93335 6.06403 3.85173 8.54669 2.35557C11.0293 0.859409 14.0021 0.111328 17.4647 0.111328C21.5807 0.111328 24.9453 1.13587 27.5587 3.18496C30.2047 5.20154 31.8543 8.04748 32.5077 11.7228H25.5987C25.1741 9.8689 24.2593 8.42154 22.8547 7.38072C21.4827 6.30739 19.6533 5.77072 17.3667 5.77072C14.1981 5.77072 11.7153 6.84406 9.91869 8.99072C8.12203 11.1374 7.22369 14.081 7.22369 17.8213C7.22369 21.5617 8.12203 24.5053 9.91869 26.6519C11.7153 28.7661 14.1981 29.8231 17.3667 29.8231C19.6533 29.8231 21.4827 29.3353 22.8547 28.3595C24.2593 27.3513 25.1741 25.9689 25.5987 24.2125H32.5077C31.8543 27.7253 30.2047 30.4737 27.5587 32.4577C24.9453 34.4417 21.5807 35.4338 17.4647 35.4338ZM45.3117 35.4338C43.2209 35.4338 41.5059 35.1085 40.1667 34.458C38.8273 33.775 37.8309 32.8805 37.1777 31.7747C36.5243 30.6688 36.1977 29.4492 36.1977 28.1156C36.1977 25.8713 37.0797 24.0499 38.8437 22.6513C40.6077 21.2528 43.2537 20.5534 46.7817 20.5534H52.9557V19.968C52.9557 18.3092 52.4819 17.0895 51.5347 16.3089C50.5873 15.5283 49.4113 15.138 48.0067 15.138C46.7327 15.138 45.6219 15.447 44.6747 16.065C43.7273 16.6504 43.1393 17.5286 42.9107 18.6995H36.7857C36.9489 16.9431 37.5369 15.4144 38.5497 14.1134C39.5949 12.8124 40.9343 11.8204 42.5677 11.1374C44.2009 10.4218 46.0303 10.0641 48.0557 10.0641C51.5183 10.0641 54.2459 10.926 56.2387 12.6498C58.2313 14.3737 59.2277 16.8131 59.2277 19.968V34.8483H53.8867L53.2987 30.9453C52.5799 32.2462 51.5673 33.3196 50.2607 34.1653C48.9867 35.011 47.3369 35.4338 45.3117 35.4338ZM46.7327 30.555C48.5293 30.555 49.9177 29.9695 50.8977 28.7986C51.9103 27.6277 52.5473 26.1804 52.8087 24.4565H47.4677C45.8017 24.4565 44.6093 24.7655 43.8907 25.3834C43.1719 25.9689 42.8127 26.7007 42.8127 27.5789C42.8127 28.5222 43.1719 29.254 43.8907 29.7744C44.6093 30.2947 45.5567 30.555 46.7327 30.555ZM74.2779 35.4338C72.1219 35.4338 70.2272 35.0922 68.5939 34.4092C66.9606 33.6937 65.6539 32.7179 64.6739 31.4819C63.6939 30.2459 63.1059 28.8149 62.9099 27.1886H69.2309C69.4269 28.1319 69.9496 28.945 70.7989 29.628C71.6809 30.2785 72.8079 30.6038 74.1799 30.6038C75.5519 30.6038 76.5482 30.3273 77.1689 29.7744C77.8222 29.2214 78.1489 28.5871 78.1489 27.8716C78.1489 26.8308 77.6916 26.1316 76.7769 25.7738C75.8622 25.3834 74.5882 25.0095 72.9549 24.6516C71.9096 24.424 70.8479 24.1474 69.7699 23.8222C68.6919 23.497 67.6956 23.0904 66.7809 22.6025C65.8989 22.0822 65.1802 21.4316 64.6249 20.651C64.0696 19.8379 63.7919 18.8459 63.7919 17.675C63.7919 15.5283 64.6412 13.7231 66.3399 12.2595C68.0712 10.7959 70.4886 10.0641 73.5919 10.0641C76.4666 10.0641 78.7532 10.7308 80.4519 12.0644C82.1832 13.3979 83.2122 15.2356 83.5389 17.5774H77.6099C77.2506 15.7885 75.8949 14.8941 73.5429 14.8941C72.3669 14.8941 71.4522 15.1217 70.7989 15.5771C70.1782 16.0325 69.8679 16.6016 69.8679 17.2847C69.8679 18.0002 70.3416 18.5695 71.2889 18.9922C72.2362 19.415 73.4939 19.8053 75.0619 20.1631C76.7606 20.5534 78.3122 20.9925 79.7169 21.4804C81.1542 21.9358 82.2976 22.635 83.1469 23.5783C83.9962 24.489 84.4209 25.8062 84.4209 27.5301C84.4536 29.0262 84.0616 30.3761 83.2449 31.5795C82.4282 32.7829 81.2522 33.7262 79.7169 34.4092C78.1816 35.0922 76.3686 35.4338 74.2779 35.4338ZM99.0605 34.8483C96.5125 34.8483 94.4707 34.2304 92.9355 32.9944C91.4001 31.7584 90.6325 29.5629 90.6325 26.408V15.8698H86.4675V10.6495H90.6325L91.3675 4.16072H96.9045V10.6495H103.47V15.8698H96.9045V26.4568C96.9045 27.6277 97.1495 28.4408 97.6395 28.8962C98.1621 29.319 99.0441 29.5304 100.285 29.5304H103.323V34.8483H99.0605ZM116.254 35.4338C114.164 35.4338 112.449 35.1085 111.109 34.458C109.77 33.775 108.774 32.8805 108.12 31.7747C107.467 30.6688 107.14 29.4492 107.14 28.1156C107.14 25.8713 108.022 24.0499 109.786 22.6513C111.55 21.2528 114.196 20.5534 117.724 20.5534H123.898V19.968C123.898 18.3092 123.425 17.0895 122.477 16.3089C121.53 15.5283 120.354 15.138 118.949 15.138C117.675 15.138 116.565 15.447 115.617 16.065C114.67 16.6504 114.082 17.5286 113.853 18.6995H107.728C107.892 16.9431 108.48 15.4144 109.492 14.1134C110.538 12.8124 111.877 11.8204 113.51 11.1374C115.144 10.4218 116.973 10.0641 118.998 10.0641C122.461 10.0641 125.189 10.926 127.181 12.6498C129.174 14.3737 130.17 16.8131 130.17 19.968V34.8483H124.829L124.241 30.9453C123.523 32.2462 122.51 33.3196 121.203 34.1653C119.929 35.011 118.28 35.4338 116.254 35.4338ZM117.675 30.555C119.472 30.555 120.86 29.9695 121.84 28.7986C122.853 27.6277 123.49 26.1804 123.751 24.4565H118.41C116.744 24.4565 115.552 24.7655 114.833 25.3834C114.115 25.9689 113.755 26.7007 113.755 27.5789C113.755 28.5222 114.115 29.254 114.833 29.7744C115.552 30.2947 116.499 30.555 117.675 30.555ZM139.689 34.8483L132.584 10.6495H138.807L143.021 28.0668L147.921 10.6495H154.879L159.779 28.0668L164.042 10.6495H170.265L163.111 34.8483H156.594L151.4 16.748L146.206 34.8483H139.689ZM180.377 35.4338C178.287 35.4338 176.572 35.1085 175.232 34.458C173.894 33.775 172.897 32.8805 172.243 31.7747C171.591 30.6688 171.263 29.4492 171.263 28.1156C171.263 25.8713 172.145 24.0499 173.909 22.6513C175.673 21.2528 178.319 20.5534 181.847 20.5534H188.021V19.968C188.021 18.3092 187.548 17.0895 186.6 16.3089C185.654 15.5283 184.478 15.138 183.072 15.138C181.798 15.138 180.688 15.447 179.74 16.065C178.794 16.6504 178.206 17.5286 177.976 18.6995H171.851C172.015 16.9431 172.603 15.4144 173.615 14.1134C174.661 12.8124 176.001 11.8204 177.633 11.1374C179.267 10.4218 181.097 10.0641 183.121 10.0641C186.585 10.0641 189.312 10.926 191.304 12.6498C193.298 14.3737 194.293 16.8131 194.293 19.968V34.8483H188.952L188.364 30.9453C187.646 32.2462 186.634 33.3196 185.326 34.1653C184.052 35.011 182.403 35.4338 180.377 35.4338ZM181.798 30.555C183.596 30.555 184.983 29.9695 185.963 28.7986C186.977 27.6277 187.614 26.1804 187.874 24.4565H182.533C180.867 24.4565 179.676 24.7655 178.956 25.3834C178.238 25.9689 177.878 26.7007 177.878 27.5789C177.878 28.5222 178.238 29.254 178.956 29.7744C179.676 30.2947 180.622 30.555 181.798 30.555ZM201.523 45.5816L207.158 33.2383H205.688L196.231 10.6495H203.042L209.853 27.6765L216.958 10.6495H223.622L208.187 45.5816H201.523Z" fill="white"/>
</g>
<defs>
<clipPath id="clip0_82801_287">
<rect width="224" height="46" fill="white"/>
</clipPath>
</defs>
</svg>
